<svg width="438" height="940" viewBox="0 0 438 940" fill="none" xmlns="http://www.w3.org/2000/svg">
<g clip-path="url(#clip0_146_7607)" filter="url(#filter0_d_146_7607)">
<rect width="430" height="932" transform="translate(4)" fill="#0D204B"/>
<path d="M4 354C4 255.693 83.6933 176 182 176H355C398.63 176 434 211.37 434 255V931C434 935.971 429.971 940 425 940H13C8.02944 940 4 935.971 4 931V354Z" fill="#F5F5F5"/>
<path d="M455.17 314.832C353.839 330.911 307.115 254.04 221.385 200.276C139.315 148.807 46.3006 140.217 26.5649 48.7171C-4.09301 -93.4207 247.481 -157.826 386.315 -97.266C542.239 -29.2522 624.409 287.978 455.17 314.832Z" fill="#F0E2C7"/>
</g>
<defs>
<filter id="filter0_d_146_7607" x="0" y="0" width="438" height="940" filterUnits="userSpaceOnUse" color-interpolation-filters="sRGB">
<feFlood flood-opacity="0" result="BackgroundImageFix"/>
<feColorMatrix in="SourceAlpha" type="matrix" values="0 0 0 0 0 0 0 0 0 0 0 0 0 0 0 0 0 0 127 0" result="hardAlpha"/>
<feOffset dy="4"/>
<feGaussianBlur stdDeviation="2"/>
<feComposite in2="hardAlpha" operator="out"/>
<feColorMatrix type="matrix" values="0 0 0 0 0 0 0 0 0 0 0 0 0 0 0 0 0 0 0.25 0"/>
<feBlend mode="normal" in2="BackgroundImageFix" result="effect1_dropShadow_146_7607"/>
<feBlend mode="normal" in="SourceGraphic" in2="effect1_dropShadow_146_7607" result="shape"/>
</filter>
<clipPath id="clip0_146_7607">
<rect width="430" height="932" fill="white" transform="translate(4)"/>
</clipPath>
</defs>
</svg>
