<svg width="430" height="932" viewBox="0 0 430 932" fill="none" xmlns="http://www.w3.org/2000/svg">
<g clip-path="url(#clip0_146_7685)">
<rect width="430" height="932" fill="#0D204B"/>
<path d="M0 302C0 258.37 35.3695 223 79 223H351C394.63 223 430 258.37 430 302V927C430 929.761 427.761 932 425 932H5C2.23858 932 0 929.761 0 927V302Z" fill="#F5F5F5"/>
<path d="M470.17 403.832C368.839 419.911 322.115 343.04 236.385 289.276C154.315 237.807 61.3006 229.217 41.5649 137.717C10.907 -4.42066 262.481 -68.8257 401.315 -8.26604C557.239 59.7478 639.409 376.978 470.17 403.832Z" fill="#3C3C56"/>
</g>
<defs>
<clipPath id="clip0_146_7685">
<rect width="430" height="932" fill="white"/>
</clipPath>
</defs>
</svg>
