<svg width="430" height="932" viewBox="0 0 430 932" fill="none" xmlns="http://www.w3.org/2000/svg">
<g clip-path="url(#clip0_146_7406)">
<rect width="430" height="932" fill="#0D204B"/>
<path d="M0 302C0 258.37 35.3695 223 79 223H351C394.63 223 430 258.37 430 302V927C430 929.761 427.761 932 425 932H5C2.23858 932 0 929.761 0 927V302Z" fill="#F5F5F5"/>
<path d="M494.17 396.832C392.839 412.911 346.115 336.04 260.385 282.276C178.315 230.807 85.3006 222.217 65.5649 130.717C34.907 -11.4207 286.481 -75.8257 425.315 -15.266C581.239 52.7478 663.409 369.978 494.17 396.832Z" fill="#3C3C56"/>
</g>
<defs>
<clipPath id="clip0_146_7406">
<rect width="430" height="932" fill="white"/>
</clipPath>
</defs>
</svg>
