<svg width="144" height="108" viewBox="0 0 144 108" fill="none" xmlns="http://www.w3.org/2000/svg">
<g filter="url(#filter0_d_146_7643)">
<rect x="21.3229" y="21.3229" width="101.354" height="65.3542" rx="14.5521" fill="white" stroke="#D9D9D9" stroke-width="2.64583"/>
<path fill-rule="evenodd" clip-rule="evenodd" d="M72.7445 68.6121C69.2039 71.5253 64.6112 73.2839 59.5928 73.2839C48.3944 73.2839 39.3164 64.5273 39.3164 53.7255C39.3164 42.9236 48.3944 34.167 59.5928 34.167C64.6113 34.167 69.204 35.9257 72.7446 38.8389C76.2852 35.9257 80.8778 34.1671 85.8963 34.1671C97.0946 34.1671 106.173 42.9237 106.173 53.7256C106.173 64.5274 97.0946 73.284 85.8963 73.284C80.8778 73.284 76.2851 71.5253 72.7445 68.6121Z" fill="#ED0006"/>
<path fill-rule="evenodd" clip-rule="evenodd" d="M72.7422 68.6121C77.1022 65.0247 79.8669 59.6865 79.8669 53.7255C79.8669 47.7644 77.1022 42.4262 72.7422 38.8388C76.2828 35.9256 80.8754 34.167 85.8938 34.167C97.0922 34.167 106.17 42.9236 106.17 53.7255C106.17 64.5273 97.0922 73.2839 85.8938 73.2839C80.8754 73.2839 76.2828 71.5253 72.7422 68.6121Z" fill="#F9A000"/>
<path fill-rule="evenodd" clip-rule="evenodd" d="M72.7419 68.6122C77.1019 65.0248 79.8666 59.6866 79.8666 53.7255C79.8666 47.7645 77.1019 42.4263 72.7419 38.8389C68.3819 42.4263 65.6172 47.7645 65.6172 53.7255C65.6172 59.6866 68.3819 65.0248 72.7419 68.6122Z" fill="#FF5E00"/>
</g>
<defs>
<filter id="filter0_d_146_7643" x="0" y="0" width="144" height="108" filterUnits="userSpaceOnUse" color-interpolation-filters="sRGB">
<feFlood flood-opacity="0" result="BackgroundImageFix"/>
<feColorMatrix in="SourceAlpha" type="matrix" values="0 0 0 0 0 0 0 0 0 0 0 0 0 0 0 0 0 0 127 0" result="hardAlpha"/>
<feOffset/>
<feGaussianBlur stdDeviation="10"/>
<feComposite in2="hardAlpha" operator="out"/>
<feColorMatrix type="matrix" values="0 0 0 0 0 0 0 0 0 0 0 0 0 0 0 0 0 0 0.07 0"/>
<feBlend mode="normal" in2="BackgroundImageFix" result="effect1_dropShadow_146_7643"/>
<feBlend mode="normal" in="SourceGraphic" in2="effect1_dropShadow_146_7643" result="shape"/>
</filter>
</defs>
</svg>
