<svg width="146" height="112" viewBox="0 0 146 112" fill="none" xmlns="http://www.w3.org/2000/svg">
<g filter="url(#filter0_d_146_7644)">
<rect x="21.3229" y="21.3229" width="103.354" height="69.3542" rx="14.5521" fill="white" stroke="#D9D9D9" stroke-width="2.64583"/>
<path fill-rule="evenodd" clip-rule="evenodd" d="M49.9834 65.7236H45.2721C44.9497 65.7236 44.6755 65.9557 44.6253 66.2709L42.7198 78.2381C42.6819 78.4743 42.8665 78.6871 43.1083 78.6871H45.3576C45.68 78.6871 45.9541 78.455 46.0044 78.1392L46.5184 74.9115C46.5679 74.5954 46.8428 74.3637 47.1645 74.3637H48.656C51.7595 74.3637 53.5505 72.876 54.0185 69.9281C54.2292 68.6384 54.0274 67.625 53.4175 66.9151C52.748 66.1361 51.5602 65.7236 49.9834 65.7236ZM50.527 70.0945C50.2694 71.7691 48.9777 71.7691 47.7287 71.7691H47.0178L47.5165 68.6415C47.5462 68.4527 47.7115 68.3134 47.9044 68.3134H48.2302C49.081 68.3134 49.8837 68.3134 50.2984 68.7937C50.5455 69.0805 50.6213 69.5062 50.527 70.0945ZM64.0666 70.0408H61.8105C61.6183 70.0408 61.4522 70.1801 61.4225 70.3692L61.3228 70.9942L61.1649 70.7677C60.6765 70.0654 59.5875 69.8308 58.5004 69.8308C56.0071 69.8308 53.8779 71.7012 53.4631 74.3251C53.2476 75.6338 53.554 76.8852 54.3035 77.7581C54.9911 78.5605 55.9749 78.8949 57.1452 78.8949C59.154 78.8949 60.2682 77.6153 60.2682 77.6153L60.1674 78.2365C60.1295 78.474 60.3141 78.6868 60.5544 78.6868H62.5868C62.91 78.6868 63.1826 78.4547 63.2336 78.1389L64.453 70.4899C64.4916 70.2546 64.3077 70.0408 64.0666 70.0408ZM60.9217 74.3905C60.704 75.6672 59.6809 76.5243 58.3764 76.5243C57.7213 76.5243 57.1975 76.3162 56.8615 75.9218C56.528 75.5302 56.4012 74.9725 56.5073 74.3517C56.7107 73.0857 57.7509 72.2008 59.0357 72.2008C59.6762 72.2008 60.1971 72.4114 60.5401 72.8093C60.8838 73.2113 61.0202 73.7722 60.9217 74.3905ZM73.8152 70.0405H76.0825C76.4 70.0405 76.5852 70.3932 76.4048 70.6512L68.8642 81.4329C68.7421 81.6076 68.541 81.7115 68.3261 81.7115H66.0617C65.7429 81.7115 65.5567 81.3559 65.7413 81.0972L68.0892 77.8143L65.5921 70.5549C65.5057 70.3026 65.6938 70.0405 65.9648 70.0405H68.1925C68.482 70.0405 68.7374 70.2287 68.8209 70.5031L70.1461 74.8875L73.2732 70.325C73.3956 70.1469 73.599 70.0405 73.8152 70.0405Z" fill="#253B80"/>
<path fill-rule="evenodd" clip-rule="evenodd" d="M98.393 78.2387L100.327 66.0527C100.356 65.8635 100.522 65.7243 100.714 65.7236H102.891C103.131 65.7236 103.316 65.9371 103.278 66.1733L101.371 78.1399C101.321 78.4557 101.047 78.6878 100.724 78.6878H98.78C98.5397 78.6878 98.3551 78.4749 98.393 78.2387ZM83.5852 65.7243H78.873C78.5514 65.7243 78.2772 65.9564 78.2268 66.2715L76.3214 78.2387C76.2834 78.4749 76.468 78.6878 76.7087 78.6878H79.1265C79.3512 78.6878 79.5435 78.5254 79.5785 78.3044L80.1192 74.9122C80.1689 74.5961 80.4437 74.3643 80.7654 74.3643H82.2561C85.3602 74.3643 87.1509 72.8766 87.6192 69.9287C87.8306 68.639 87.6275 67.6256 87.018 66.9157C86.3488 66.1367 85.1619 65.7243 83.5852 65.7243ZM84.1287 70.0951C83.8718 71.7698 82.58 71.7698 81.3303 71.7698H80.62L81.1196 68.6422C81.1492 68.4533 81.3131 68.3141 81.5066 68.3141H81.8324C82.6827 68.3141 83.486 68.3141 83.9005 68.7944C84.1479 69.0811 84.2231 69.5068 84.1287 70.0951ZM97.6671 70.0414H95.4126C95.2187 70.0414 95.0542 70.1807 95.0252 70.3699L94.9254 70.9948L94.767 70.7684C94.2786 70.0661 93.1902 69.8314 92.1031 69.8314C89.6098 69.8314 87.4812 71.7019 87.0664 74.3258C86.8516 75.6344 87.1567 76.8859 87.9062 77.7587C88.5951 78.5611 89.5776 78.8956 90.7479 78.8956C92.7567 78.8956 93.8705 77.616 93.8705 77.616L93.7701 78.2371C93.7322 78.4746 93.9168 78.6874 94.1587 78.6874H96.1901C96.5118 78.6874 96.786 78.4553 96.8363 78.1396L98.0564 70.4905C98.0937 70.2552 97.9091 70.0414 97.6671 70.0414ZM94.5225 74.3911C94.306 75.6679 93.2817 76.5249 91.9769 76.5249C91.323 76.5249 90.7983 76.3168 90.462 75.9224C90.1285 75.5308 90.0032 74.9731 90.1081 74.3523C90.3124 73.0863 91.3514 72.2014 92.6362 72.2014C93.2769 72.2014 93.7975 72.4121 94.1409 72.81C94.4858 73.212 94.6223 73.7728 94.5225 74.3911Z" fill="#179BD7"/>
<path d="M67.4147 61.4434L67.9939 57.7992L66.7037 57.7695H60.543L64.8244 30.878C64.8375 30.7968 64.8808 30.7211 64.944 30.6674C65.0071 30.6136 65.0881 30.584 65.1722 30.584H75.5603C79.009 30.584 81.3888 31.2949 82.6315 32.6979C83.2139 33.3562 83.585 34.044 83.7645 34.801C83.9526 35.5952 83.9561 36.5441 83.7722 37.7015L83.7588 37.786V38.5276L84.3415 38.8545C84.8322 39.1123 85.2217 39.4074 85.5208 39.7453C86.0194 40.308 86.3417 41.0233 86.4778 41.8713C86.6184 42.7435 86.5718 43.7812 86.3417 44.9562C86.0758 46.3077 85.6461 47.4848 85.0658 48.448C84.5319 49.3355 83.8519 50.0715 83.0447 50.6421C82.2738 51.184 81.3579 51.5955 80.3225 51.8588C79.3189 52.1175 78.175 52.2482 76.9202 52.2482H76.1118C75.5338 52.2482 74.9721 52.4544 74.5315 52.8242C74.0896 53.2016 73.797 53.7169 73.7074 54.2809L73.6465 54.6091L72.6232 61.0319L72.5766 61.2678C72.5645 61.3426 72.5435 61.3799 72.5126 61.4052C72.4848 61.4279 72.445 61.4434 72.4061 61.4434H67.4147Z" fill="#253B80"/>
<path d="M84.8983 37.8701C84.8674 38.0665 84.832 38.2672 84.7921 38.4735C83.4219 45.4407 78.7353 47.8476 72.7492 47.8476H69.7015C68.9695 47.8476 68.3527 48.3742 68.2385 49.0894L66.678 58.8926L66.2362 61.6712C66.1619 62.1408 66.5276 62.5643 67.0058 62.5643H72.4116C73.0518 62.5643 73.5953 62.1035 73.696 61.4783L73.7493 61.2061L74.7672 54.8082L74.8326 54.4573C74.932 53.8298 75.4768 53.3691 76.117 53.3691H76.9255C82.1627 53.3691 86.2627 51.2628 87.4611 45.1676C87.9616 42.6213 87.7024 40.4953 86.3778 39C85.9771 38.5492 85.4798 38.1751 84.8983 37.8701Z" fill="#179BD7"/>
<path d="M83.4611 37.3054C83.252 37.2451 83.0358 37.1902 82.8143 37.1409C82.5918 37.0926 82.3635 37.0498 82.1289 37.0125C81.307 36.8809 80.4067 36.8184 79.442 36.8184H71.2999C71.0994 36.8184 70.9091 36.8633 70.7385 36.9445C70.363 37.1233 70.084 37.4755 70.0165 37.9066L68.2841 48.7738L68.2344 49.0908C68.3485 48.3756 68.9654 47.849 69.6973 47.849H72.745C78.7311 47.849 83.4181 45.441 84.7879 38.4749C84.8288 38.2686 84.8632 38.0679 84.8941 37.8715C84.5476 37.6894 84.172 37.5336 83.7678 37.4009C83.6683 37.368 83.5654 37.3362 83.4611 37.3054Z" fill="#222D65"/>
<path d="M70.0222 37.906C70.0897 37.4748 70.369 37.1227 70.7442 36.945C70.9161 36.8638 71.1054 36.8188 71.3056 36.8188H79.448C80.4127 36.8188 81.313 36.8813 82.1346 37.013C82.3695 37.0503 82.5978 37.0931 82.8203 37.1413C83.0418 37.1907 83.2577 37.2456 83.4671 37.3059C83.5711 37.3366 83.674 37.3684 83.7748 37.4003C84.179 37.533 84.5545 37.6899 84.9011 37.8709C85.3088 35.2961 84.8979 33.5431 83.4926 31.9557C81.9433 30.2081 79.1468 29.46 75.5686 29.46H65.1803C64.4492 29.46 63.826 29.9865 63.7128 30.7029L59.3861 57.8708C59.3007 58.4083 59.7192 58.8934 60.2663 58.8934H66.6799L68.2901 48.7732L70.0222 37.906Z" fill="#253B80"/>
</g>
<defs>
<filter id="filter0_d_146_7644" x="0" y="0" width="146" height="112" filterUnits="userSpaceOnUse" color-interpolation-filters="sRGB">
<feFlood flood-opacity="0" result="BackgroundImageFix"/>
<feColorMatrix in="SourceAlpha" type="matrix" values="0 0 0 0 0 0 0 0 0 0 0 0 0 0 0 0 0 0 127 0" result="hardAlpha"/>
<feOffset/>
<feGaussianBlur stdDeviation="10"/>
<feComposite in2="hardAlpha" operator="out"/>
<feColorMatrix type="matrix" values="0 0 0 0 0 0 0 0 0 0 0 0 0 0 0 0 0 0 0.07 0"/>
<feBlend mode="normal" in2="BackgroundImageFix" result="effect1_dropShadow_146_7644"/>
<feBlend mode="normal" in="SourceGraphic" in2="effect1_dropShadow_146_7644" result="shape"/>
</filter>
</defs>
</svg>
