<svg width="151" height="105" viewBox="0 0 151 105" fill="none" xmlns="http://www.w3.org/2000/svg">
<g filter="url(#filter0_d_146_7642)">
<rect x="21.3229" y="21.3229" width="108.354" height="62.3542" rx="14.5521" fill="white" stroke="#D9D9D9" stroke-width="2.64583"/>
<path fill-rule="evenodd" clip-rule="evenodd" d="M53.6993 64.0335H46.9748L41.9323 47.6051C41.693 46.8494 41.1848 46.1813 40.4372 45.8665C38.5717 45.0752 36.516 44.4454 34.2734 44.1278V43.4953H45.106C46.601 43.4953 47.7223 44.4454 47.9092 45.5489L50.5256 57.3992L57.2467 43.4953H63.7843L53.6993 64.0335ZM67.5269 64.0335H61.1762L66.4056 43.4953H72.7563L67.5269 64.0335ZM80.9627 49.1859C81.1496 48.0797 82.2708 47.4472 83.579 47.4472C85.6347 47.2884 87.874 47.606 89.7428 48.3946L90.8641 43.9726C88.9953 43.3401 86.9396 43.0225 85.0741 43.0225C78.9103 43.0225 74.4251 45.8673 74.4251 49.8156C74.4251 52.8193 77.6021 54.3964 79.8447 55.3465C82.2708 56.2939 83.2052 56.9264 83.0184 57.8737C83.0184 59.2948 81.1496 59.9273 79.284 59.9273C77.0414 59.9273 74.7989 59.4536 72.7465 58.6623L71.6252 63.087C73.8677 63.8756 76.2939 64.1932 78.5365 64.1932C85.4478 64.3493 89.7428 61.5072 89.7428 57.2412C89.7428 51.8692 80.9627 51.5543 80.9627 49.1859ZM111.97 64.0335L106.927 43.4953H101.511C100.389 43.4953 99.2682 44.1278 98.8944 45.0752L89.5569 64.0335H96.0944L97.3993 61.0326H105.432L106.179 64.0335H111.97ZM102.45 49.0273L104.315 56.7678H99.086L102.45 49.0273Z" fill="#172B85"/>
</g>
<defs>
<filter id="filter0_d_146_7642" x="0" y="0" width="151" height="105" filterUnits="userSpaceOnUse" color-interpolation-filters="sRGB">
<feFlood flood-opacity="0" result="BackgroundImageFix"/>
<feColorMatrix in="SourceAlpha" type="matrix" values="0 0 0 0 0 0 0 0 0 0 0 0 0 0 0 0 0 0 127 0" result="hardAlpha"/>
<feOffset/>
<feGaussianBlur stdDeviation="10"/>
<feComposite in2="hardAlpha" operator="out"/>
<feColorMatrix type="matrix" values="0 0 0 0 0 0 0 0 0 0 0 0 0 0 0 0 0 0 0.07 0"/>
<feBlend mode="normal" in2="BackgroundImageFix" result="effect1_dropShadow_146_7642"/>
<feBlend mode="normal" in="SourceGraphic" in2="effect1_dropShadow_146_7642" result="shape"/>
</filter>
</defs>
</svg>
