<svg width="430" height="932" viewBox="0 0 430 932" fill="none" xmlns="http://www.w3.org/2000/svg">
<g clip-path="url(#clip0_146_7491)">
<rect width="430" height="932" fill="#0D204B"/>
<path d="M0 737C0 664.098 59.0984 605 132 605H430V932H0V737Z" fill="#F5F5F5"/>
<path d="M112.733 660.708C12.5344 600.297 303.359 440.631 277.781 322.784C253.294 209.966 108.911 129.112 172.545 23.5976C271.395 -140.31 725.913 133.308 790.628 297.895C863.309 482.741 280.079 761.602 112.733 660.708Z" fill="#D0A267"/>
<path d="M688.88 429.614C582.917 447.311 534.057 362.701 444.409 303.523C358.587 246.872 261.32 237.417 240.682 136.705C208.623 -19.7445 471.697 -90.6342 616.878 -23.977C779.93 50.8849 865.856 400.056 688.88 429.614Z" fill="#F0E2C7"/>
<path d="M755.88 397.614C649.917 415.311 601.057 330.7 511.409 271.523C425.587 214.872 328.32 205.417 307.682 104.705C275.623 -51.7446 538.697 -122.634 683.878 -55.9771C846.93 18.8848 932.856 368.056 755.88 397.614Z" stroke="#DBC089"/>
<path d="M15.3944 166.777C16.1913 166.871 16.8592 166.941 17.3983 166.988C17.9608 167.012 18.4178 167.047 18.7694 167.094C19.1913 167.141 19.5194 167.164 19.7538 167.164C20.0116 167.188 20.3983 167.176 20.9139 167.129C21.3592 167.082 21.9569 167.023 22.7069 166.953C23.4803 166.883 24.4647 166.777 25.66 166.637C25.1209 167.105 24.6873 167.562 24.3592 168.008C24.0545 168.43 23.8202 168.805 23.6561 169.133C23.4452 169.531 23.3163 169.906 23.2694 170.258C23.1756 170.82 23.0936 171.594 23.0233 172.578C22.9764 173.539 22.9295 174.594 22.8827 175.742C22.8358 176.891 22.8123 178.074 22.8123 179.293C22.8123 180.512 22.8241 181.672 22.8475 182.773C22.8944 183.852 22.9647 184.812 23.0584 185.656C23.1756 186.5 23.3163 187.109 23.4803 187.484C23.7147 187.906 23.9608 188.328 24.2186 188.75C24.453 189.102 24.7342 189.465 25.0623 189.84C25.3905 190.215 25.7655 190.52 26.1873 190.754C24.8045 190.684 23.703 190.648 22.8827 190.648H21.617C21.242 190.648 20.7616 190.672 20.1756 190.719C19.6834 190.766 19.0623 190.812 18.3123 190.859C17.5623 190.906 16.66 190.977 15.6053 191.07C16.1444 190.484 16.5663 189.922 16.8709 189.383C17.1756 188.844 17.4217 188.375 17.6092 187.977C17.8202 187.508 17.9608 187.062 18.0311 186.641C18.1248 186.031 18.1952 185.281 18.242 184.391C18.3123 183.477 18.3592 182.504 18.3827 181.473C18.4061 180.418 18.4061 179.352 18.3827 178.273C18.3827 177.172 18.3592 176.117 18.3123 175.109C18.2655 174.102 18.1952 173.188 18.1014 172.367C18.0311 171.547 17.9373 170.891 17.8202 170.398C17.7498 170.094 17.6092 169.754 17.3983 169.379C17.2108 169.051 16.953 168.676 16.6248 168.254C16.3202 167.809 15.91 167.316 15.3944 166.777ZM26.1773 166.074C27.232 166.262 28.0992 166.391 28.7789 166.461C29.4586 166.531 30.0094 166.59 30.4313 166.637C30.9234 166.684 31.3102 166.695 31.5914 166.672H32.6461C33.0211 166.672 33.4898 166.672 34.0523 166.672C34.6383 166.648 35.3648 166.637 36.232 166.637C36.7242 167.785 37.1695 168.84 37.568 169.801C37.9898 170.762 38.3414 171.582 38.6227 172.262C38.9508 173.082 39.2555 173.82 39.5367 174.477C39.8648 175.297 40.2164 176.199 40.5914 177.184C40.9664 178.168 41.3063 179.094 41.6109 179.961C41.9391 180.828 42.2086 181.543 42.4195 182.105C42.6305 182.668 42.7359 182.926 42.7359 182.879C42.7359 182.855 42.7477 182.621 42.7711 182.176C42.7945 181.707 42.818 181.133 42.8414 180.453C42.8648 179.75 42.8883 178.988 42.9117 178.168C42.9586 177.324 42.982 176.516 42.982 175.742C43.0055 174.945 43.0172 174.219 43.0172 173.562C43.0172 172.906 42.9938 172.414 42.9469 172.086C42.8766 171.688 42.7359 171.23 42.525 170.715C42.3375 170.27 42.0797 169.742 41.7516 169.133C41.4234 168.5 40.9664 167.785 40.3805 166.988C41.3414 167.012 42.1266 167.023 42.7359 167.023C43.3453 167.023 43.8375 167.023 44.2125 167.023C44.6344 167.023 44.9625 167.012 45.1969 166.988C45.5016 166.988 45.8766 166.965 46.3219 166.918C46.7203 166.871 47.2125 166.836 47.7984 166.812C48.4078 166.766 49.1578 166.707 50.0484 166.637C49.5328 167.105 49.1227 167.551 48.818 167.973C48.5133 168.395 48.2672 168.77 48.0797 169.098C47.8688 169.473 47.7281 169.824 47.6578 170.152C47.5641 170.574 47.482 171.266 47.4117 172.227C47.3648 173.164 47.3063 174.219 47.2359 175.391C47.1891 176.562 47.1422 177.781 47.0953 179.047C47.0484 180.312 47.0016 181.473 46.9547 182.527C46.9547 183.324 46.9313 184.18 46.8844 185.094C46.8375 185.867 46.7906 186.746 46.7438 187.73C46.6969 188.691 46.6383 189.664 46.568 190.648L43.4391 190.719C42.525 189.102 41.7516 187.719 41.1188 186.57C40.5094 185.398 40.0055 184.438 39.607 183.688C39.1617 182.82 38.7867 182.094 38.482 181.508C38.2242 180.945 37.8844 180.301 37.4625 179.574C37.1109 178.965 36.6656 178.215 36.1266 177.324C35.6109 176.434 34.9898 175.414 34.2633 174.266C34.193 175.883 34.1578 177.266 34.1578 178.414C34.1813 179.539 34.2164 180.477 34.2633 181.227C34.3336 182.094 34.4156 182.82 34.5094 183.406C34.6266 183.969 34.7906 184.602 35.0016 185.305C35.1891 185.914 35.4117 186.629 35.6695 187.449C35.9508 188.27 36.2906 189.195 36.6891 190.227C35.3063 190.156 34.275 190.121 33.5953 190.121H32.5406C32.2125 190.121 31.7672 190.156 31.2047 190.227C30.7359 190.273 30.0914 190.344 29.2711 190.438C28.4742 190.531 27.4781 190.66 26.2828 190.824C26.8453 190.145 27.2906 189.523 27.6188 188.961C27.9703 188.375 28.2398 187.883 28.4273 187.484C28.6617 187.016 28.8258 186.605 28.9195 186.254C28.9898 185.879 29.0367 185.234 29.0602 184.32C29.0836 183.383 29.0836 182.328 29.0602 181.156C29.0602 179.961 29.0367 178.707 28.9898 177.395C28.9664 176.082 28.9313 174.863 28.8844 173.738C28.8375 172.613 28.7789 171.652 28.7086 170.855C28.6617 170.059 28.6266 169.566 28.6031 169.379C28.5328 169.074 28.3922 168.746 28.1813 168.395C27.9938 168.09 27.7477 167.75 27.443 167.375C27.1383 166.977 26.7164 166.543 26.1773 166.074ZM72.2923 165.266C71.9642 166.016 71.6713 166.672 71.4134 167.234C71.1556 167.797 70.933 168.277 70.7455 168.676C70.5345 169.121 70.3588 169.52 70.2181 169.871C70.1009 170.129 69.9486 170.48 69.7611 170.926C69.5736 171.324 69.3392 171.852 69.058 172.508C68.8002 173.141 68.4603 173.961 68.0384 174.969C67.8275 174.102 67.5697 173.34 67.265 172.684C66.9603 172.027 66.6322 171.453 66.2806 170.961C65.9291 170.469 65.5541 170.07 65.1556 169.766C64.7806 169.438 64.4056 169.168 64.0306 168.957C63.1634 168.488 62.2494 168.23 61.2884 168.184C60.0228 168.254 59.0267 168.465 58.3002 168.816C57.597 169.145 57.0814 169.531 56.7533 169.977C56.4252 170.398 56.2494 170.844 56.2259 171.312C56.2025 171.758 56.2611 172.133 56.4017 172.438C56.5189 172.719 56.9291 173.047 57.6322 173.422C58.3588 173.797 59.2259 174.23 60.2338 174.723C61.265 175.191 62.3666 175.73 63.5384 176.34C64.7103 176.926 65.7884 177.582 66.7728 178.309C67.7806 179.012 68.6244 179.785 69.3041 180.629C70.0072 181.449 70.3939 182.328 70.4642 183.266C70.5345 184.461 70.5228 185.539 70.4291 186.5C70.3353 187.461 70.0072 188.281 69.4447 188.961C68.8822 189.641 68.0033 190.18 66.808 190.578C65.6361 190.977 64.0072 191.223 61.9213 191.316C59.765 191.41 57.9955 191.293 56.6127 190.965C55.2298 190.637 54.1048 190.191 53.2377 189.629C52.3939 189.066 51.7611 188.445 51.3392 187.766C50.9408 187.086 50.6478 186.441 50.4603 185.832C50.2728 185.199 50.1439 184.66 50.0736 184.215C50.0033 183.746 49.8861 183.465 49.722 183.371C49.5345 183.254 49.347 183.148 49.1595 183.055C48.9955 182.961 48.8197 182.879 48.6322 182.809C48.4447 182.715 48.2572 182.633 48.0697 182.562L58.3002 180.91C57.7142 181.379 57.2572 181.812 56.9291 182.211C56.6244 182.609 56.39 182.961 56.2259 183.266C56.0384 183.617 55.9095 183.945 55.8392 184.25C55.7923 184.578 55.8978 184.988 56.1556 185.48C56.4134 185.973 56.765 186.453 57.2103 186.922C57.6791 187.367 58.2181 187.742 58.8275 188.047C59.4369 188.352 60.0697 188.48 60.7259 188.434C61.5463 188.363 62.2142 188.164 62.7298 187.836C63.2455 187.484 63.6322 187.051 63.89 186.535C64.1713 186.02 64.3353 185.457 64.3822 184.848C64.4291 184.238 64.3705 183.641 64.2064 183.055C64.0658 182.445 63.8314 181.883 63.5033 181.367C63.1752 180.828 62.7884 180.383 62.3431 180.031C61.9447 179.75 61.3236 179.48 60.4798 179.223C59.6595 178.965 58.7338 178.684 57.7025 178.379C56.6947 178.074 55.6517 177.723 54.5736 177.324C53.5189 176.926 52.558 176.434 51.6908 175.848C50.847 175.262 50.1673 174.57 49.6517 173.773C49.1595 172.977 48.972 172.016 49.0892 170.891C49.183 169.93 49.4877 169.133 50.0033 168.5C50.5423 167.844 51.2103 167.328 52.0072 166.953C52.8275 166.555 53.7298 166.262 54.7142 166.074C55.722 165.887 56.7416 165.781 57.7728 165.758C58.8275 165.711 59.8588 165.723 60.8666 165.793C61.8978 165.863 62.8236 165.945 63.6439 166.039C64.4642 166.133 65.1556 166.227 65.7181 166.32C66.3041 166.391 66.6673 166.438 66.808 166.461C67.4173 166.508 68.0267 166.496 68.6361 166.426C69.1752 166.379 69.7611 166.273 70.3939 166.109C71.0502 165.922 71.683 165.641 72.2923 165.266ZM72.1066 166.777C72.9034 166.871 73.5714 166.941 74.1105 166.988C74.673 167.012 75.13 167.047 75.4816 167.094C75.9034 167.141 76.2316 167.164 76.4659 167.164C76.7238 167.188 77.1105 167.176 77.6261 167.129C78.0714 167.082 78.6691 167.023 79.4191 166.953C80.1925 166.883 81.1769 166.777 82.3722 166.637C81.8331 167.105 81.3995 167.562 81.0714 168.008C80.7667 168.43 80.5323 168.805 80.3683 169.133C80.1573 169.531 80.0284 169.906 79.9816 170.258C79.8878 170.82 79.8058 171.594 79.7355 172.578C79.6886 173.539 79.6417 174.594 79.5948 175.742C79.548 176.891 79.5245 178.074 79.5245 179.293C79.5245 180.512 79.5363 181.672 79.5597 182.773C79.6066 183.852 79.6769 184.812 79.7706 185.656C79.8878 186.5 80.0284 187.109 80.1925 187.484C80.4269 187.906 80.673 188.328 80.9308 188.75C81.1652 189.102 81.4464 189.465 81.7745 189.84C82.1027 190.215 82.4777 190.52 82.8995 190.754C81.5167 190.684 80.4152 190.648 79.5948 190.648H78.3292C77.9542 190.648 77.4738 190.672 76.8878 190.719C76.3956 190.766 75.7745 190.812 75.0245 190.859C74.2745 190.906 73.3722 190.977 72.3175 191.07C72.8566 190.484 73.2784 189.922 73.5831 189.383C73.8878 188.844 74.1339 188.375 74.3214 187.977C74.5323 187.508 74.673 187.062 74.7433 186.641C74.837 186.031 74.9073 185.281 74.9542 184.391C75.0245 183.477 75.0714 182.504 75.0948 181.473C75.1183 180.418 75.1183 179.352 75.0948 178.273C75.0948 177.172 75.0714 176.117 75.0245 175.109C74.9777 174.102 74.9073 173.188 74.8136 172.367C74.7433 171.547 74.6495 170.891 74.5323 170.398C74.462 170.094 74.3214 169.754 74.1105 169.379C73.923 169.051 73.6652 168.676 73.337 168.254C73.0323 167.809 72.6222 167.316 72.1066 166.777ZM96.8114 165.617C98.3114 165.594 99.5419 165.863 100.503 166.426C101.487 166.988 102.284 167.656 102.893 168.43C103.503 169.203 103.972 169.988 104.3 170.785C104.628 171.559 104.886 172.168 105.073 172.613C105.12 172.73 105.214 172.883 105.354 173.07C105.472 173.234 105.636 173.434 105.847 173.668C106.081 173.879 106.374 174.125 106.725 174.406C105.999 174.43 105.354 174.453 104.792 174.477C104.229 174.477 103.749 174.488 103.35 174.512C102.905 174.535 102.507 174.559 102.155 174.582C101.804 174.605 101.37 174.641 100.854 174.688C100.386 174.734 99.8114 174.781 99.1317 174.828C98.452 174.875 97.62 174.945 96.6356 175.039C97.2216 174.336 97.6786 173.715 98.0067 173.176C98.3583 172.613 98.6161 172.121 98.7802 171.699C98.9677 171.254 99.0731 170.867 99.0966 170.539C99.1434 170.211 99.1317 169.93 99.0614 169.695C98.9208 169.156 98.5575 168.77 97.9716 168.535C96.2841 168.066 94.8075 168.441 93.5419 169.66C92.2997 170.855 91.4091 172.824 90.87 175.566C90.6122 176.926 90.3661 178.344 90.1317 179.82C89.9208 181.273 89.8388 182.609 89.8856 183.828C89.9325 185.023 90.1669 185.996 90.5888 186.746C91.0106 187.496 91.7372 187.848 92.7684 187.801C93.7763 187.754 94.6317 187.59 95.3348 187.309C96.038 187.004 96.6005 186.652 97.0223 186.254C97.4442 185.832 97.7372 185.387 97.9013 184.918C98.0888 184.426 98.1591 183.969 98.1122 183.547C98.0184 183.219 97.7723 182.867 97.3739 182.492C97.0223 182.164 96.495 181.801 95.7919 181.402C95.0888 180.98 94.0809 180.547 92.7684 180.102C94.0106 180.031 95.0302 179.984 95.827 179.961C96.6473 179.914 97.2919 179.867 97.7606 179.82C98.3231 179.773 98.7567 179.738 99.0614 179.715C99.3427 179.691 99.7528 179.668 100.292 179.645C100.761 179.621 101.358 179.609 102.085 179.609C102.835 179.609 103.772 179.598 104.897 179.574C104.475 179.996 104.147 180.383 103.913 180.734C103.796 180.922 103.69 181.086 103.597 181.227C103.503 181.461 103.468 181.941 103.491 182.668C103.491 183.277 103.538 184.18 103.632 185.375C103.725 186.547 103.901 188.152 104.159 190.191L99.4833 190.824L99.6942 186.078C99.1552 187.367 98.4755 188.328 97.6552 188.961C96.8583 189.594 96.0966 190.039 95.37 190.297C94.5028 190.602 93.6005 190.742 92.663 190.719C91.4442 190.602 90.2255 190.32 89.0067 189.875C87.788 189.43 86.7098 188.75 85.7723 187.836C84.8348 186.898 84.1083 185.691 83.5927 184.215C83.1005 182.738 82.9481 180.91 83.1356 178.73C83.3466 176.551 83.8622 174.652 84.6825 173.035C85.5263 171.395 86.5692 170.035 87.8114 168.957C89.0536 167.879 90.4481 167.07 91.995 166.531C93.5653 165.969 95.1708 165.664 96.8114 165.617ZM105.098 166.039C105.919 166.133 106.61 166.203 107.173 166.25C107.735 166.273 108.18 166.297 108.508 166.32C108.907 166.344 109.223 166.355 109.458 166.355C109.856 166.355 110.313 166.344 110.829 166.32C111.274 166.297 111.79 166.262 112.376 166.215C112.985 166.145 113.641 166.039 114.344 165.898C114.016 166.25 113.747 166.59 113.536 166.918C113.325 167.223 113.161 167.504 113.044 167.762C112.903 168.043 112.786 168.301 112.692 168.535C112.598 168.84 112.493 169.309 112.376 169.941C112.258 170.48 112.13 171.242 111.989 172.227C111.872 173.211 111.719 174.5 111.532 176.094C112.329 176.117 113.02 176.129 113.606 176.129C114.192 176.105 114.684 176.094 115.083 176.094H116.243C116.571 176.07 116.946 176.047 117.368 176.023C118.071 176 119.137 175.93 120.567 175.812C120.684 174.734 120.743 173.809 120.743 173.035C120.766 172.238 120.755 171.57 120.708 171.031C120.661 170.422 120.59 169.906 120.497 169.484C120.426 169.25 120.321 168.969 120.18 168.641C120.063 168.359 119.899 168.02 119.688 167.621C119.501 167.199 119.243 166.695 118.915 166.109C119.524 166.203 120.063 166.273 120.532 166.32C121.024 166.344 121.434 166.367 121.762 166.391C122.137 166.414 122.454 166.426 122.712 166.426C122.969 166.426 123.309 166.414 123.731 166.391C124.083 166.367 124.516 166.355 125.032 166.355C125.548 166.332 126.18 166.297 126.93 166.25C126.743 166.578 126.579 166.918 126.438 167.27C126.298 167.621 126.18 167.938 126.087 168.219C125.993 168.547 125.899 168.875 125.805 169.203C125.688 169.695 125.583 170.41 125.489 171.348C125.419 172.285 125.348 173.328 125.278 174.477C125.231 175.625 125.184 176.82 125.137 178.062C125.114 179.305 125.09 180.477 125.067 181.578C125.067 182.68 125.079 183.664 125.102 184.531C125.126 185.375 125.173 185.973 125.243 186.324C125.313 186.746 125.43 187.18 125.594 187.625C125.735 188.023 125.923 188.457 126.157 188.926C126.391 189.371 126.696 189.793 127.071 190.191L118.598 190.824C118.95 190.496 119.231 190.18 119.442 189.875C119.653 189.547 119.817 189.266 119.934 189.031C120.051 188.773 120.133 188.527 120.18 188.293C120.204 188.012 120.239 187.52 120.286 186.816C120.333 186.23 120.38 185.398 120.426 184.32C120.473 183.242 120.52 181.812 120.567 180.031C120.239 180.031 119.84 180.043 119.372 180.066C118.926 180.066 118.505 180.078 118.106 180.102C117.637 180.125 117.145 180.137 116.63 180.137C116.114 180.16 115.575 180.184 115.012 180.207C114.544 180.254 114.016 180.301 113.43 180.348C112.868 180.371 112.305 180.406 111.743 180.453C111.696 181.438 111.696 182.305 111.743 183.055C111.79 183.781 111.86 184.402 111.954 184.918C112.048 185.527 112.165 186.055 112.305 186.5C112.446 186.922 112.598 187.344 112.762 187.766C112.903 188.141 113.067 188.539 113.255 188.961C113.465 189.383 113.676 189.758 113.887 190.086C113.442 190.039 113.032 190.004 112.657 189.98C112.282 189.934 111.954 189.887 111.673 189.84C111.344 189.816 111.028 189.793 110.723 189.77C110.419 189.77 110.055 189.758 109.633 189.734C109.258 189.711 108.79 189.699 108.227 189.699C107.665 189.676 107.008 189.664 106.258 189.664C106.704 189.219 107.055 188.785 107.313 188.363C107.594 187.918 107.794 187.52 107.911 187.168C108.051 186.746 108.145 186.359 108.192 186.008C108.215 185.703 108.227 185.129 108.227 184.285C108.251 183.441 108.251 182.48 108.227 181.402C108.227 180.301 108.215 179.152 108.192 177.957C108.169 176.738 108.133 175.602 108.087 174.547C108.063 173.492 108.028 172.59 107.981 171.84C107.958 171.066 107.934 170.586 107.911 170.398C107.794 169.977 107.618 169.52 107.383 169.027C107.173 168.629 106.891 168.172 106.54 167.656C106.188 167.117 105.708 166.578 105.098 166.039ZM126.709 165.336C128.28 165.523 129.639 165.664 130.788 165.758C131.936 165.828 132.885 165.887 133.635 165.934C134.502 165.98 135.229 165.992 135.815 165.969C136.424 165.945 137.256 165.887 138.311 165.793C139.202 165.723 140.373 165.629 141.827 165.512C143.28 165.371 145.096 165.184 147.276 164.949C147.299 165.488 147.311 166.016 147.311 166.531C147.334 167.023 147.358 167.457 147.381 167.832C147.405 168.277 147.416 168.688 147.416 169.062C147.416 169.461 147.393 169.965 147.346 170.574C147.299 171.09 147.217 171.746 147.1 172.543C147.006 173.316 146.854 174.242 146.643 175.32C146.315 174.055 145.998 173.035 145.694 172.262C145.389 171.465 145.108 170.832 144.85 170.363C144.569 169.824 144.288 169.414 144.006 169.133C143.702 168.922 143.338 168.746 142.916 168.605C142.541 168.488 142.061 168.395 141.475 168.324C140.913 168.254 140.245 168.266 139.471 168.359C139.354 171.453 139.272 173.961 139.225 175.883C139.178 177.805 139.143 179.305 139.12 180.383C139.096 181.672 139.084 182.598 139.084 183.16C139.108 183.957 139.237 184.742 139.471 185.516C139.659 186.172 139.963 186.852 140.385 187.555C140.807 188.258 141.416 188.879 142.213 189.418H137.924C137.526 189.418 137.034 189.441 136.448 189.488C135.955 189.535 135.323 189.582 134.549 189.629C133.799 189.676 132.92 189.758 131.913 189.875C132.264 189.266 132.545 188.715 132.756 188.223C132.967 187.73 133.131 187.309 133.248 186.957C133.389 186.535 133.495 186.16 133.565 185.832C133.588 185.363 133.647 184.414 133.741 182.984C133.764 182.398 133.788 181.672 133.811 180.805C133.858 179.938 133.905 178.906 133.952 177.711C134.022 176.516 134.08 175.145 134.127 173.598C134.198 172.027 134.268 170.258 134.338 168.289C133.916 168.172 133.518 168.184 133.143 168.324C132.768 168.441 132.44 168.594 132.159 168.781C131.83 169.016 131.514 169.297 131.209 169.625C130.905 170.023 130.565 170.539 130.19 171.172C129.862 171.711 129.487 172.426 129.065 173.316C128.643 174.184 128.163 175.262 127.623 176.551C127.506 175.191 127.424 174.078 127.377 173.211C127.33 172.32 127.295 171.629 127.272 171.137C127.248 170.551 127.237 170.117 127.237 169.836C127.237 169.578 127.213 169.238 127.166 168.816C127.12 168.465 127.061 168.008 126.991 167.445C126.92 166.859 126.827 166.156 126.709 165.336ZM169.133 165.266C168.805 166.016 168.512 166.672 168.254 167.234C167.996 167.797 167.774 168.277 167.586 168.676C167.375 169.121 167.199 169.52 167.059 169.871C166.942 170.129 166.789 170.48 166.602 170.926C166.414 171.324 166.18 171.852 165.899 172.508C165.641 173.141 165.301 173.961 164.879 174.969C164.668 174.102 164.41 173.34 164.106 172.684C163.801 172.027 163.473 171.453 163.121 170.961C162.77 170.469 162.395 170.07 161.996 169.766C161.621 169.438 161.246 169.168 160.871 168.957C160.004 168.488 159.09 168.23 158.129 168.184C156.863 168.254 155.867 168.465 155.141 168.816C154.438 169.145 153.922 169.531 153.594 169.977C153.266 170.398 153.09 170.844 153.067 171.312C153.043 171.758 153.102 172.133 153.242 172.438C153.36 172.719 153.77 173.047 154.473 173.422C155.199 173.797 156.067 174.23 157.074 174.723C158.106 175.191 159.207 175.73 160.379 176.34C161.551 176.926 162.629 177.582 163.613 178.309C164.621 179.012 165.465 179.785 166.145 180.629C166.848 181.449 167.235 182.328 167.305 183.266C167.375 184.461 167.363 185.539 167.27 186.5C167.176 187.461 166.848 188.281 166.285 188.961C165.723 189.641 164.844 190.18 163.649 190.578C162.477 190.977 160.848 191.223 158.762 191.316C156.606 191.41 154.836 191.293 153.453 190.965C152.07 190.637 150.945 190.191 150.078 189.629C149.235 189.066 148.602 188.445 148.18 187.766C147.781 187.086 147.488 186.441 147.301 185.832C147.113 185.199 146.985 184.66 146.914 184.215C146.844 183.746 146.727 183.465 146.563 183.371C146.375 183.254 146.188 183.148 146 183.055C145.836 182.961 145.66 182.879 145.473 182.809C145.285 182.715 145.098 182.633 144.91 182.562L155.141 180.91C154.555 181.379 154.098 181.812 153.77 182.211C153.465 182.609 153.231 182.961 153.067 183.266C152.879 183.617 152.75 183.945 152.68 184.25C152.633 184.578 152.738 184.988 152.996 185.48C153.254 185.973 153.606 186.453 154.051 186.922C154.52 187.367 155.059 187.742 155.668 188.047C156.277 188.352 156.91 188.48 157.567 188.434C158.387 188.363 159.055 188.164 159.57 187.836C160.086 187.484 160.473 187.051 160.731 186.535C161.012 186.02 161.176 185.457 161.223 184.848C161.27 184.238 161.211 183.641 161.047 183.055C160.906 182.445 160.672 181.883 160.344 181.367C160.016 180.828 159.629 180.383 159.184 180.031C158.785 179.75 158.164 179.48 157.32 179.223C156.5 178.965 155.574 178.684 154.543 178.379C153.535 178.074 152.492 177.723 151.414 177.324C150.36 176.926 149.399 176.434 148.531 175.848C147.688 175.262 147.008 174.57 146.492 173.773C146 172.977 145.813 172.016 145.93 170.891C146.024 169.93 146.328 169.133 146.844 168.5C147.383 167.844 148.051 167.328 148.848 166.953C149.668 166.555 150.57 166.262 151.555 166.074C152.563 165.887 153.582 165.781 154.613 165.758C155.668 165.711 156.699 165.723 157.707 165.793C158.738 165.863 159.664 165.945 160.485 166.039C161.305 166.133 161.996 166.227 162.559 166.32C163.145 166.391 163.508 166.438 163.649 166.461C164.258 166.508 164.867 166.496 165.477 166.426C166.016 166.379 166.602 166.273 167.235 166.109C167.891 165.922 168.524 165.641 169.133 165.266Z" fill="#AF9253"/>
</g>
<defs>
<clipPath id="clip0_146_7491">
<rect width="430" height="932" fill="white"/>
</clipPath>
</defs>
</svg>
