<svg width="40" height="37" viewBox="0 0 40 37" fill="none" xmlns="http://www.w3.org/2000/svg">
<path d="M10.6728 12.8989C10.8114 11.7449 10.8807 11.168 11.0041 10.6767C11.8065 7.48122 14.4858 5.10443 17.7542 4.68888C18.2567 4.625 18.8378 4.625 20 4.625V4.625C21.1622 4.625 21.7433 4.625 22.2458 4.68888C25.5142 5.10443 28.1935 7.48122 28.9959 10.6767C29.1193 11.168 29.1886 11.7449 29.3272 12.8989L29.6545 15.6238C29.778 16.652 29.8398 17.166 29.9652 17.6627C30.096 18.1805 30.2784 18.6839 30.5095 19.1654C30.7311 19.6272 31.0129 20.0616 31.5765 20.9304L32.9967 23.12C33.8803 24.4821 34.322 25.1631 34.0381 25.6857C33.7542 26.2083 32.9424 26.2083 31.3188 26.2083H8.6812C7.05763 26.2083 6.24584 26.2083 5.96191 25.6857C5.67798 25.1631 6.11974 24.4821 7.00327 23.12L8.42354 20.9304C8.98708 20.0616 9.26885 19.6272 9.49051 19.1654C9.72165 18.6839 9.90398 18.1805 10.0348 17.6627C10.1602 17.166 10.222 16.652 10.3455 15.6238L10.6728 12.8989Z" stroke="#33363F" stroke-width="2"/>
<path d="M13.3346 26.2083C13.3346 27.0182 13.5071 27.82 13.8421 28.5682C14.1771 29.3164 14.6682 29.9962 15.2873 30.5688C15.9063 31.1415 16.6412 31.5957 17.4501 31.9056C18.2589 32.2155 19.1258 32.375 20.0013 32.375C20.8768 32.375 21.7437 32.2155 22.5525 31.9056C23.3614 31.5957 24.0963 31.1415 24.7153 30.5688C25.3344 29.9962 25.8255 29.3164 26.1605 28.5682C26.4955 27.82 26.668 27.0182 26.668 26.2083" stroke="#33363F" stroke-width="2" stroke-linecap="round"/>
</svg>
