<svg width="128" height="128" viewBox="0 0 128 128" fill="none" xmlns="http://www.w3.org/2000/svg">
<g opacity="0.9">
<path d="M104.597 21.0264C96.4304 13.4994 86.1641 8.40106 75.0394 6.3474C63.9146 4.29373 52.4075 5.37268 41.9087 9.45385C31.4099 13.535 22.3687 20.4437 15.8778 29.3451C9.3869 38.2464 5.7241 48.7594 5.33203 59.6135L25.8769 60.2954C26.1315 53.2457 28.5105 46.4174 32.7264 40.636C36.9423 34.8545 42.8146 30.3673 49.6336 27.7165C56.4527 25.0658 63.9266 24.365 71.1522 25.6989C78.3777 27.0327 85.0457 30.3441 90.3503 35.2329L104.597 21.0264Z" stroke="#222222"/>
<path d="M5.63944 62.573C4.56961 77.4498 9.70834 92.1247 19.9252 103.369C30.142 114.614 44.6 121.507 60.1186 122.533C75.6372 123.559 90.9452 118.632 102.675 108.838C114.405 99.0439 121.596 85.1838 122.665 70.307L102.186 68.9535C101.49 78.6235 96.8164 87.6325 89.1921 93.9988C81.5677 100.365 71.6175 103.567 61.5304 102.9C51.4433 102.234 42.0456 97.7532 35.4047 90.4441C28.7638 83.1351 25.4236 73.5964 26.119 63.9264L5.63944 62.573Z" stroke="#222222"/>
<path d="M107.683 24.0916C113.339 30.1526 117.556 37.3177 120.043 45.0926C122.53 52.8674 123.229 61.067 122.09 69.1256L101.747 66.4841C102.488 61.246 102.034 55.9163 100.417 50.8626C98.8001 45.809 96.0591 41.1517 92.3828 37.212L107.683 24.0916Z" stroke="#222222"/>
</g>
</svg>
