<svg width="40" height="37" viewBox="0 0 40 37" fill="none" xmlns="http://www.w3.org/2000/svg">
<path d="M19.9987 3.10547C10.7937 3.10547 3.33203 10.0075 3.33203 18.5221C3.33203 27.0367 10.7937 33.9388 19.9987 33.9388C29.2037 33.9388 36.6653 27.0367 36.6653 18.5221C36.6653 10.0075 29.2037 3.10547 19.9987 3.10547ZM19.9987 6.1888C22.1987 6.1888 24.6153 10.8631 24.9837 16.9758L15.0337 16.9943C15.4003 10.8816 17.7987 6.1888 19.9987 6.1888ZM14.1137 7.42677C12.6803 10.006 11.9137 13.4254 11.7287 16.9836L6.76205 16.9697C7.25872 12.7686 10.317 9.24439 14.1137 7.42677ZM25.892 7.43448C29.6887 9.25211 32.6686 12.6777 33.2436 16.9943L28.2786 16.9805C28.122 13.2805 27.237 10.0276 25.892 7.43448ZM6.77202 20.0699L11.737 20.0314C11.922 23.5896 12.6937 27.0676 14.1203 29.619C10.1337 27.7706 7.34535 24.1523 6.77202 20.0699ZM15.007 20.0823L24.957 20.0622C24.5903 26.1734 22.1987 30.8554 19.9987 30.8554C17.7987 30.8554 15.3737 26.195 15.007 20.0823ZM28.287 20.0669L33.2303 20.053C32.657 24.1369 29.8704 27.7845 25.8854 29.6021C27.3654 26.7716 28.102 23.625 28.287 20.0669Z" fill="#2A343D"/>
</svg>
