<svg width="24" height="24" viewBox="0 0 24 24" fill="none" xmlns="http://www.w3.org/2000/svg">
<path d="M4 2.99121C3.4477 2.99121 3 3.43921 3 3.99121V16.9912C3 19.2002 4.7909 20.9912 7 20.9912H20C20.552 20.9912 21 20.5432 21 19.9912C21 19.4392 20.552 18.9912 20 18.9912H7C5.8954 18.9912 5 18.0962 5 16.9912V3.99121C5 3.43921 4.5523 2.99121 4 2.99121ZM14 4.99121V6.99121H17.562L14.781 9.77222C14.691 9.86322 14.41 9.99121 14.281 9.99121H12.719C12.06 9.99121 11.247 10.3062 10.781 10.7722L7.2812 14.2722C6.8907 14.6632 6.8907 15.3192 7.2812 15.7102C7.4765 15.9052 7.7441 15.9912 8 15.9912C8.2559 15.9912 8.5235 15.9052 8.7188 15.7102L12.219 12.2102C12.309 12.1192 12.59 11.9912 12.719 11.9912H14.281C14.94 11.9912 15.753 11.6762 16.219 11.2102L19 8.4292V11.9912H21V5.99121C21 5.43921 20.552 4.99121 20 4.99121H14Z" fill="#2A343D"/>
</svg>
