<svg width="24" height="24" viewBox="0 0 24 24" fill="none" xmlns="http://www.w3.org/2000/svg">
<path d="M4 2.99121C3.4477 2.99121 3 3.43921 3 3.99121V16.9912C3 19.2002 4.7909 20.9912 7 20.9912H20C20.5523 20.9912 21 20.5432 21 19.9912C21 19.4392 20.5523 18.9912 20 18.9912H7C5.8954 18.9912 5 18.0962 5 16.9912V3.99121C5 3.43921 4.5523 2.99121 4 2.99121ZM8 4.99121C7.7441 4.99121 7.4765 5.07722 7.2812 5.27222C6.8907 5.66322 6.8907 6.31921 7.2812 6.71021L10.7812 10.2102C11.247 10.6762 12.06 10.9912 12.7188 10.9912H14.2812C14.4095 10.9912 14.6905 11.1192 14.7812 11.2102L17.5625 13.9912H14V15.9912H20C20.5523 15.9912 21 15.5432 21 14.9912V8.99121H19V12.5532L16.2188 9.77222C15.753 9.30622 14.94 8.99121 14.2812 8.99121H12.7188C12.5905 8.99121 12.3095 8.86322 12.2188 8.77222L8.7188 5.27222C8.5235 5.07722 8.2559 4.99121 8 4.99121Z" fill="#2A343D"/>
</svg>
