<svg width="41" height="37" viewBox="0 0 41 37" fill="none" xmlns="http://www.w3.org/2000/svg">
<path d="M16.8305 4.86902L17.8247 4.9765L16.8305 4.86902ZM16.7087 5.99544L15.7145 5.88795V5.88795L16.7087 5.99544ZM15.9211 8.56145L15.5247 7.64338V7.64338L15.9211 8.56145ZM13.5133 7.37524L14.1168 6.57785V6.57785L13.5133 7.37524ZM12.2643 6.42992L11.6608 7.22731V7.22731L12.2643 6.42992ZM10.9437 5.72315L10.993 6.72194H10.993L10.9437 5.72315ZM9.69923 6.55649L9.02019 5.82239L9.02019 5.82239L9.69923 6.55649ZM7.65058 8.45149L6.97153 7.71739V7.71739L7.65058 8.45149ZM6.61294 9.79963L7.61168 9.84968V9.84968L6.61294 9.79963ZM7.5106 11.2448L8.25963 10.5822L8.25963 10.5822L7.5106 11.2448ZM8.0209 11.8217L7.27187 12.4842L8.0209 11.8217ZM6.70705 15.1383L6.61495 14.1425H6.61495L6.70705 15.1383ZM5.50589 15.2494L5.598 16.2451H5.598L5.50589 15.2494ZM3.95115 15.6553L4.69011 16.3291L4.69011 16.3291L3.95115 15.6553ZM3.95115 21.346L4.69011 20.6722L4.69011 20.6722L3.95115 21.346ZM5.50589 21.7519L5.598 20.7562H5.598L5.50589 21.7519ZM6.70642 21.863L6.61431 22.8587L6.70642 21.863ZM9.50712 22.672L10.4368 22.3037V22.3037L9.50712 22.672ZM8.02028 25.1796L8.76931 25.8421L8.02028 25.1796ZM7.51053 25.7559L6.7615 25.0933L7.51053 25.7559ZM6.61286 27.201L7.61161 27.1509V27.1509L6.61286 27.201ZM7.65051 28.5491L8.32955 27.815L8.32955 27.815L7.65051 28.5491ZM9.69916 30.4441L10.3782 29.71L9.69916 30.4441ZM10.9437 31.2775L10.993 30.2787H10.993L10.9437 31.2775ZM12.2642 30.5707L11.6607 29.7733L12.2642 30.5707ZM13.5132 29.6254L14.1167 30.4228L13.5132 29.6254ZM15.9211 28.4392L15.5246 29.3572L15.5246 29.3572L15.9211 28.4392ZM16.7086 31.0052L17.7028 30.8977L16.7086 31.0052ZM16.8305 32.1323L15.8363 32.2398V32.2398L16.8305 32.1323ZM17.2531 33.6615L17.9212 32.9173L17.9212 32.9173L17.2531 33.6615ZM23.4604 33.6615L22.7924 32.9173L22.7924 32.9173L23.4604 33.6615ZM23.8831 32.1323L24.8773 32.2398L23.8831 32.1323ZM24.0049 31.0058L23.0107 30.8983V30.8983L24.0049 31.0058ZM24.7924 28.4398L25.1888 29.3578L25.1888 29.3578L24.7924 28.4398ZM27.2002 29.626L27.8037 28.8286L27.8144 28.8367L27.8249 28.8451L27.2002 29.626ZM27.2002 29.626L26.5968 30.4234L26.586 30.4153L26.5755 30.4069L27.2002 29.626ZM28.4494 30.5714L29.0529 29.774L29.1078 29.8156L29.1565 29.8643L28.4494 30.5714ZM28.4494 30.5714L27.846 31.3688L27.791 31.3272L27.7423 31.2785L28.4494 30.5714ZM29.7699 31.2782L29.7206 30.2794H29.7206L29.7699 31.2782ZM31.0144 30.4448L30.3354 29.7107L30.3354 29.7107L31.0144 30.4448ZM33.0631 28.5498L33.7926 29.2338L33.7683 29.2597L33.7421 29.2839L33.0631 28.5498ZM33.0631 28.5498L32.3336 27.8659L32.3579 27.8399L32.3841 27.8157L33.0631 28.5498ZM34.1007 27.2017L35.0995 27.2517L34.1007 27.2017ZM33.2031 25.7566L32.454 26.4191L32.454 26.4191L33.2031 25.7566ZM32.6927 25.1796L33.4418 24.5171L33.4418 24.5171L32.6927 25.1796ZM31.2059 22.6721L32.1356 23.0404L31.2059 22.6721ZM34.0066 21.863L33.9145 20.8673L33.9604 20.863H34.0066V21.863ZM34.0066 21.863L34.0987 22.8588L34.0528 22.863H34.0066V21.863ZM35.2077 21.7519L35.2998 22.7477H35.2998L35.2077 21.7519ZM36.7624 21.346L36.0234 20.6722L36.0234 20.6722L36.7624 21.346ZM36.7624 15.6553L37.5013 14.9816L37.5013 14.9816L36.7624 15.6553ZM35.2077 15.2494L35.1155 16.2451H35.1155L35.2077 15.2494ZM34.006 15.1382L34.0981 14.1425H34.0981L34.006 15.1382ZM32.6921 11.8216L33.4412 12.4842H33.4412L32.6921 11.8216ZM33.203 11.2441L32.454 10.5815V10.5815L33.203 11.2441ZM34.1007 9.79893L35.0994 9.74888L34.1007 9.79893ZM33.063 8.45079L33.7421 7.71669H33.7421L33.063 8.45079ZM31.0144 6.55579L31.6934 5.82169L31.0144 6.55579ZM29.7699 5.72245L29.7206 6.72124L29.7699 5.72245ZM28.4493 6.42922L29.0528 7.22661L29.0528 7.22661L28.4493 6.42922ZM27.2002 7.37463L26.5967 6.57725L27.2002 7.37463ZM24.0048 5.99483L24.999 5.88735V5.88735L24.0048 5.99483ZM23.8831 4.86902L22.8889 4.9765V4.9765L23.8831 4.86902ZM15.8363 4.76154C15.8793 4.36356 15.9199 3.96992 15.9969 3.64883C16.0806 3.30004 16.2336 2.91124 16.5851 2.59571L17.9212 4.08398C17.9876 4.02432 17.9752 3.97567 17.9417 4.11528C17.9016 4.28259 17.8734 4.52561 17.8247 4.9765L15.8363 4.76154ZM15.7145 5.88795L15.8363 4.76154L17.8247 4.9765L17.7029 6.10292L15.7145 5.88795ZM15.5247 7.64338C15.3613 7.71393 15.4009 7.84538 15.4848 7.5233C15.5706 7.19424 15.6267 6.69991 15.7145 5.88795L17.7029 6.10292C17.6224 6.84758 17.5523 7.52073 17.4201 8.02774C17.2862 8.54175 17.0161 9.17788 16.3176 9.47951L15.5247 7.64338ZM14.1168 6.57785C14.768 7.0707 15.1663 7.3688 15.4646 7.532C15.7567 7.69174 15.6881 7.57283 15.5247 7.64338L16.3176 9.47951C15.6191 9.78114 14.9708 9.54155 14.5048 9.28663C14.0451 9.03517 13.5071 8.62462 12.9098 8.17262L14.1168 6.57785ZM12.8677 5.63254L14.1168 6.57785L12.9098 8.17262L11.6608 7.22731L12.8677 5.63254ZM10.8945 4.72437C11.3407 4.70235 11.7062 4.8523 12.0014 5.023C12.2725 5.1798 12.5689 5.40636 12.8677 5.63254L11.6608 7.22731C11.3213 6.97036 11.1389 6.83459 11.0001 6.7543C10.8853 6.68792 10.9097 6.72605 10.993 6.72194L10.8945 4.72437ZM9.02019 5.82239C9.29532 5.56789 9.56796 5.31325 9.82232 5.13053C10.0992 4.93159 10.4482 4.74639 10.8945 4.72437L10.993 6.72194C11.0763 6.71783 11.0969 6.67748 10.9892 6.75483C10.859 6.8484 10.6908 7.00147 10.3783 7.29059L9.02019 5.82239ZM6.97153 7.71739L9.02019 5.82239L10.3783 7.29059L8.32962 9.18559L6.97153 7.71739ZM5.61419 9.74958C5.63946 9.24525 5.87207 8.86341 6.11504 8.57013C6.33952 8.29917 6.65297 8.01207 6.97153 7.71739L8.32962 9.18559C7.97003 9.51821 7.77487 9.70158 7.65517 9.84606C7.55395 9.96824 7.60682 9.94682 7.61168 9.84968L5.61419 9.74958ZM6.76157 11.9073C6.47405 11.5822 6.19088 11.2652 5.99461 10.9732C5.78218 10.6571 5.58892 10.2539 5.61419 9.74958L7.61168 9.84968C7.61655 9.75254 7.5661 9.72595 7.65459 9.85763C7.75924 10.0134 7.9351 10.2153 8.25963 10.5822L6.76157 11.9073ZM7.27187 12.4842L6.76157 11.9073L8.25963 10.5822L8.76994 11.1591L7.27187 12.4842ZM8.57804 13.9609C8.50462 14.1462 8.65029 14.2144 8.43995 13.8921C8.23258 13.5743 7.86541 13.1553 7.27187 12.4842L8.76994 11.1591C9.31839 11.7792 9.80772 12.3285 10.1148 12.799C10.4189 13.265 10.737 13.9413 10.4375 14.6975L8.57804 13.9609ZM6.61495 14.1425C7.50701 14.06 8.06157 14.006 8.43027 13.9165C8.80425 13.8257 8.65146 13.7756 8.57804 13.9609L10.4375 14.6975C10.1379 15.4537 9.44292 15.7287 8.90218 15.86C8.35617 15.9926 7.62346 16.0578 6.79916 16.134L6.61495 14.1425ZM5.41378 14.2536L6.61495 14.1425L6.79916 16.134L5.598 16.2451L5.41378 14.2536ZM3.2122 14.9816C3.53436 14.6282 3.93007 14.4786 4.28394 14.3992C4.6099 14.326 5.00929 14.291 5.41379 14.2536L5.598 16.2451C5.14003 16.2875 4.89258 16.3123 4.72204 16.3506C4.57942 16.3826 4.62899 16.3961 4.69011 16.3291L3.2122 14.9816ZM2.69011 17.2409C2.69011 16.8346 2.68815 16.4337 2.731 16.1024C2.77751 15.7427 2.89004 15.3349 3.2122 14.9816L4.69011 16.3291C4.75122 16.2621 4.73322 16.2139 4.71448 16.3589C4.69206 16.5322 4.69011 16.7809 4.69011 17.2409H2.69011ZM2.69011 19.7605V17.2409H4.69011V19.7605H2.69011ZM3.2122 22.0197C2.89004 21.6664 2.77751 21.2586 2.731 20.8989C2.68815 20.5676 2.69011 20.1667 2.69011 19.7605H4.69011C4.69011 20.2204 4.69206 20.4691 4.71448 20.6424C4.73322 20.7874 4.75122 20.7392 4.69011 20.6722L3.2122 22.0197ZM5.41379 22.7477C5.00929 22.7103 4.6099 22.6753 4.28394 22.6021C3.93007 22.5227 3.53435 22.3731 3.21219 22.0197L4.69011 20.6722C4.629 20.6052 4.57942 20.6187 4.72204 20.6507C4.89257 20.689 5.14003 20.7138 5.598 20.7562L5.41379 22.7477ZM6.61431 22.8587L5.41378 22.7477L5.598 20.7562L6.79853 20.8672L6.61431 22.8587ZM8.57741 23.0403C8.65083 23.2257 8.80363 23.1755 8.42964 23.0847C8.06093 22.9952 7.50638 22.9413 6.61431 22.8587L6.79853 20.8672C7.62283 20.9435 8.35554 21.0086 8.90155 21.1412C9.44228 21.2725 10.1373 21.5475 10.4368 22.3037L8.57741 23.0403ZM7.27124 24.517C7.86479 23.846 8.23196 23.4269 8.43933 23.1092C8.64966 22.7869 8.50399 22.855 8.57741 23.0403L10.4368 22.3037C10.7364 23.0599 10.4183 23.7363 10.1142 24.2023C9.80709 24.6728 9.31776 25.222 8.76931 25.8421L7.27124 24.517ZM6.7615 25.0933L7.27124 24.517L8.76931 25.8421L8.25956 26.4184L6.7615 25.0933ZM5.61412 27.251C5.58884 26.7467 5.78211 26.3435 5.99454 26.0274C6.1908 25.7354 6.47398 25.4184 6.7615 25.0933L8.25956 26.4184C7.93503 26.7853 7.75917 26.9873 7.65451 27.143C7.56602 27.2747 7.61648 27.2481 7.61161 27.1509L5.61412 27.251ZM6.97146 29.2832C6.65289 28.9886 6.33944 28.7014 6.11496 28.4305C5.872 28.1372 5.63939 27.7554 5.61412 27.251L7.61161 27.1509C7.60674 27.0538 7.55388 27.0324 7.65509 27.1546C7.77479 27.299 7.96996 27.4824 8.32955 27.815L6.97146 29.2832ZM9.02011 31.1782L6.97146 29.2832L8.32955 27.815L10.3782 29.71L9.02011 31.1782ZM10.8944 32.2763C10.4481 32.2542 10.0992 32.069 9.82224 31.8701C9.56789 31.6874 9.29525 31.4327 9.02011 31.1782L10.3782 29.71C10.6908 29.9991 10.8589 30.1522 10.9891 30.2458C11.0968 30.3231 11.0762 30.2828 10.993 30.2787L10.8944 32.2763ZM12.8677 31.3681C12.5688 31.5943 12.2724 31.8208 12.0013 31.9776C11.7062 32.1483 11.3406 32.2983 10.8944 32.2763L10.993 30.2787C10.9097 30.2746 10.8852 30.3127 11 30.2463C11.1388 30.166 11.3212 30.0303 11.6607 29.7733L12.8677 31.3681ZM14.1167 30.4228L12.8677 31.3681L11.6607 29.7733L12.9098 28.828L14.1167 30.4228ZM15.5246 29.3572C15.688 29.4278 15.7566 29.3089 15.4646 29.4686C15.1662 29.6318 14.7679 29.9299 14.1167 30.4228L12.9098 28.828C13.507 28.376 14.0451 27.9655 14.5047 27.714C14.9707 27.4591 15.619 27.2195 16.3175 27.5211L15.5246 29.3572ZM15.7144 31.1127C15.6266 30.3007 15.5705 29.8064 15.4847 29.4773C15.4008 29.1552 15.3612 29.2867 15.5246 29.3572L16.3175 27.5211C17.016 27.8227 17.2861 28.4589 17.4201 28.9729C17.5522 29.4799 17.6223 30.153 17.7028 30.8977L15.7144 31.1127ZM15.8363 32.2398L15.7144 31.1127L17.7028 30.8977L17.8247 32.0248L15.8363 32.2398ZM16.5851 34.4056C16.2336 34.0901 16.0806 33.7013 15.9969 33.3525C15.9199 33.0314 15.8793 32.6378 15.8363 32.2398L17.8247 32.0248C17.8734 32.4757 17.9016 32.7187 17.9417 32.886C17.9752 33.0256 17.9876 32.977 17.9212 32.9173L16.5851 34.4056ZM18.8189 34.9173C18.4186 34.9173 18.0229 34.9192 17.6953 34.8772C17.3396 34.8315 16.9366 34.7211 16.5851 34.4056L17.9212 32.9173C17.8547 32.8577 17.8077 32.8752 17.9501 32.8935C18.1207 32.9154 18.3654 32.9173 18.8189 32.9173V34.9173ZM21.8947 34.9173H18.8189V32.9173H21.8947V34.9173ZM24.1284 34.4056C23.777 34.7211 23.374 34.8315 23.0182 34.8772C22.6907 34.9192 22.295 34.9173 21.8947 34.9173V32.9173C22.3482 32.9173 22.5928 32.9154 22.7635 32.8935C22.9059 32.8752 22.8588 32.8577 22.7924 32.9173L24.1284 34.4056ZM24.8773 32.2398C24.8343 32.6378 24.7936 33.0314 24.7166 33.3525C24.633 33.7013 24.4799 34.0901 24.1284 34.4056L22.7924 32.9173C22.7259 32.977 22.7383 33.0256 22.7718 32.886C22.8119 32.7187 22.8401 32.4757 22.8889 32.0248L24.8773 32.2398ZM24.9991 31.1133L24.8773 32.2398L22.8889 32.0248L23.0107 30.8983L24.9991 31.1133ZM25.1888 29.3578C25.3522 29.2873 25.3127 29.1558 25.2287 29.4779C25.143 29.807 25.0868 30.3013 24.9991 31.1133L23.0107 30.8983C23.0912 30.1536 23.1613 29.4805 23.2934 28.9735C23.4274 28.4595 23.6975 27.8233 24.396 27.5217L25.1888 29.3578ZM26.5967 30.4234C25.9455 29.9305 25.5472 29.6324 25.2489 29.4692C24.9569 29.3095 25.0255 29.4284 25.1888 29.3578L24.396 27.5217C25.0945 27.2201 25.7427 27.4597 26.2087 27.7146C26.6684 27.966 27.2064 28.3766 27.8037 28.8286L26.5967 30.4234ZM26.5755 30.4069L26.5755 30.4068L27.8249 28.8451L27.8249 28.8451L26.5755 30.4069ZM27.8459 31.3688L26.5968 30.4234L27.8037 28.8286L29.0529 29.774L27.8459 31.3688ZM27.7423 31.2785L27.7423 31.2785L29.1565 29.8643L29.1565 29.8643L27.7423 31.2785ZM29.8192 32.2769C29.373 32.299 29.0074 32.149 28.7123 31.9783C28.4412 31.8215 28.1448 31.595 27.846 31.3688L29.0529 29.774C29.3924 30.031 29.5748 30.1667 29.7136 30.247C29.8284 30.3134 29.8039 30.2753 29.7206 30.2794L29.8192 32.2769ZM31.6935 31.1789C31.4184 31.4334 31.1457 31.6881 30.8914 31.8708C30.6144 32.0697 30.2655 32.2549 29.8192 32.2769L29.7206 30.2794C29.6374 30.2835 29.6168 30.3238 29.7245 30.2465C29.8547 30.1529 30.0228 29.9998 30.3354 29.7107L31.6935 31.1789ZM33.7421 29.2839L31.6935 31.1789L30.3354 29.7107L32.3841 27.8157L33.7421 29.2839ZM33.7926 29.2338L33.7926 29.2338L32.3336 27.8659L32.3336 27.8659L33.7926 29.2338ZM35.0995 27.2517C35.0742 27.7561 34.8416 28.1379 34.5986 28.4312C34.3742 28.7021 34.0607 28.9892 33.7421 29.2839L32.3841 27.8157C32.7436 27.4831 32.9388 27.2997 33.0585 27.1553C33.1597 27.0331 33.1069 27.0545 33.102 27.1516L35.0995 27.2517ZM33.9521 25.094C34.2396 25.4191 34.5228 25.7361 34.7191 26.0281C34.9315 26.3442 35.1248 26.7474 35.0995 27.2517L33.102 27.1516C33.0971 27.2488 33.1476 27.2754 33.0591 27.1437C32.9544 26.988 32.7786 26.786 32.454 26.4191L33.9521 25.094ZM33.4418 24.5171L33.9521 25.094L32.454 26.4191L31.9437 25.8421L33.4418 24.5171ZM32.1356 23.0404C32.209 22.855 32.0634 22.7869 32.2737 23.1092C32.4811 23.427 32.8482 23.846 33.4418 24.5171L31.9437 25.8421C31.3953 25.2221 30.9059 24.6728 30.5988 24.2023C30.2947 23.7363 29.9766 23.06 30.2762 22.3038L32.1356 23.0404ZM34.0987 22.8588C33.2066 22.9413 32.6521 22.9953 32.2834 23.0848C31.9094 23.1756 32.0622 23.2257 32.1356 23.0404L30.2762 22.3038C30.5758 21.5476 31.2707 21.2725 31.8115 21.1413C32.3575 21.0087 33.0902 20.9435 33.9145 20.8673L34.0987 22.8588ZM34.0066 22.863H34.0066V20.863H34.0066V22.863ZM35.2998 22.7477L34.0987 22.8588L33.9145 20.8673L35.1155 20.7562L35.2998 22.7477ZM37.5013 22.0197C37.1792 22.3731 36.7835 22.5227 36.4296 22.6021C36.1036 22.6753 35.7043 22.7103 35.2998 22.7477L35.1155 20.7562C35.5735 20.7138 35.821 20.689 35.9915 20.6507C36.1341 20.6187 36.0845 20.6052 36.0234 20.6722L37.5013 22.0197ZM38.0234 19.7604C38.0234 20.1667 38.0254 20.5676 37.9825 20.8989C37.936 21.2586 37.8235 21.6664 37.5013 22.0197L36.0234 20.6722C35.9623 20.7392 35.9803 20.7874 35.9991 20.6424C36.0215 20.4691 36.0234 20.2204 36.0234 19.7604H38.0234ZM38.0234 17.2409V19.7604H36.0234V17.2409H38.0234ZM37.5013 14.9816C37.8235 15.3349 37.936 15.7427 37.9825 16.1024C38.0254 16.4337 38.0234 16.8346 38.0234 17.2409H36.0234C36.0234 16.7809 36.0215 16.5322 35.9991 16.3589C35.9803 16.2139 35.9623 16.2621 36.0234 16.3291L37.5013 14.9816ZM35.2998 14.2536C35.7043 14.291 36.1036 14.326 36.4296 14.3992C36.7835 14.4786 37.1792 14.6282 37.5013 14.9816L36.0234 16.3291C36.0846 16.3961 36.1341 16.3826 35.9915 16.3506C35.821 16.3123 35.5735 16.2875 35.1155 16.2451L35.2998 14.2536ZM34.0981 14.1425L35.2998 14.2536L35.1155 16.2451L33.9139 16.134L34.0981 14.1425ZM32.135 13.9609C32.0616 13.7755 31.9088 13.8257 32.2828 13.9165C32.6515 14.006 33.206 14.0599 34.0981 14.1425L33.9139 16.134C33.0896 16.0577 32.3569 15.9926 31.8108 15.86C31.2701 15.7287 30.5751 15.4537 30.2756 14.6975L32.135 13.9609ZM33.4412 12.4842C32.8476 13.1552 32.4804 13.5743 32.2731 13.892C32.0627 14.2143 32.2084 14.1462 32.135 13.9609L30.2756 14.6975C29.976 13.9413 30.2941 13.2649 30.5982 12.7989C30.9053 12.3284 31.3946 11.7792 31.9431 11.1591L33.4412 12.4842ZM33.952 11.9066L33.4412 12.4842L31.9431 11.1591L32.454 10.5815L33.952 11.9066ZM35.0994 9.74888C35.1247 10.2532 34.9314 10.6564 34.719 10.9725C34.5227 11.2645 34.2395 11.5815 33.952 11.9066L32.454 10.5815C32.7785 10.2146 32.9544 10.0127 33.059 9.85693C33.1475 9.72525 33.097 9.75184 33.1019 9.84898L35.0994 9.74888ZM33.7421 7.71669C34.0606 8.01137 34.3741 8.29847 34.5986 8.56943C34.8415 8.86271 35.0741 9.24455 35.0994 9.74888L33.1019 9.84898C33.1068 9.94612 33.1596 9.96754 33.0584 9.84537C32.9387 9.70088 32.7436 9.51751 32.384 9.18489L33.7421 7.71669ZM31.6934 5.82169L33.7421 7.71669L32.384 9.18489L30.3353 7.28989L31.6934 5.82169ZM29.8191 4.72367C30.2654 4.74569 30.6144 4.93089 30.8913 5.12983C31.1456 5.31255 31.4183 5.56719 31.6934 5.82169L30.3353 7.28989C30.0228 7.00077 29.8546 6.8477 29.7244 6.75414C29.6167 6.67678 29.6373 6.71713 29.7206 6.72124L29.8191 4.72367ZM27.8459 5.63184C28.1447 5.40567 28.4411 5.1791 28.7122 5.02231C29.0074 4.8516 29.3729 4.70165 29.8191 4.72367L29.7206 6.72124C29.8039 6.72535 29.8283 6.68722 29.7135 6.7536C29.5747 6.83389 29.3923 6.96966 29.0528 7.22661L27.8459 5.63184ZM26.5967 6.57725L27.8459 5.63184L29.0528 7.22661L27.8036 8.17202L26.5967 6.57725ZM25.1888 7.64278C25.0254 7.57223 24.9568 7.69114 25.2488 7.5314C25.5472 7.3682 25.9455 7.0701 26.5967 6.57725L27.8036 8.17202C27.2064 8.62402 26.6683 9.03457 26.2087 9.28602C25.7427 9.54095 25.0944 9.78053 24.3959 9.47891L25.1888 7.64278ZM24.999 5.88735C25.0868 6.69931 25.1429 7.19363 25.2287 7.5227C25.3126 7.84478 25.3522 7.71333 25.1888 7.64278L24.3959 9.47891C23.6974 9.17728 23.4273 8.54114 23.2933 8.02714C23.1612 7.52012 23.0911 6.84698 23.0106 6.10231L24.999 5.88735ZM24.8773 4.76154L24.999 5.88735L23.0106 6.10231L22.8889 4.9765L24.8773 4.76154ZM24.1284 2.59571C24.4799 2.91124 24.633 3.30004 24.7166 3.64883C24.7936 3.96992 24.8343 4.36356 24.8773 4.76154L22.8889 4.9765C22.8401 4.52561 22.8119 4.28259 22.7718 4.11528C22.7383 3.97567 22.7259 4.02432 22.7924 4.08398L24.1284 2.59571ZM21.8947 2.08398C22.295 2.08398 22.6907 2.08206 23.0182 2.12411C23.374 2.16979 23.777 2.28018 24.1284 2.59571L22.7924 4.08398C22.8588 4.14365 22.9059 4.12611 22.7635 4.10782C22.5928 4.08591 22.3482 4.08398 21.8947 4.08398V2.08398ZM18.8189 2.08398H21.8947V4.08398H18.8189V2.08398ZM16.5851 2.59571C16.9366 2.28018 17.3396 2.16979 17.6953 2.12411C18.0229 2.08206 18.4186 2.08398 18.8189 2.08398V4.08398C18.3654 4.08398 18.1207 4.08591 17.9501 4.10782C17.8077 4.12611 17.8547 4.14365 17.9212 4.08398L16.5851 2.59571ZM14.6901 18.5007C14.6901 21.2821 17.1523 23.6673 20.3568 23.6673V25.6673C16.1974 25.6673 12.6901 22.5307 12.6901 18.5007H14.6901ZM20.3568 13.334C17.1523 13.334 14.6901 15.7192 14.6901 18.5007H12.6901C12.6901 14.4706 16.1974 11.334 20.3568 11.334V13.334ZM26.0234 18.5007C26.0234 15.7192 23.5612 13.334 20.3568 13.334V11.334C24.5161 11.334 28.0234 14.4706 28.0234 18.5007H26.0234ZM20.3568 23.6673C23.5612 23.6673 26.0234 21.2821 26.0234 18.5007H28.0234C28.0234 22.5307 24.5161 25.6673 20.3568 25.6673V23.6673Z" fill="#33363F"/>
</svg>
