<svg width="24" height="24" viewBox="0 0 24 24" fill="none" xmlns="http://www.w3.org/2000/svg">
<path d="M20.4844 2.98584C20.1214 2.89684 19.7088 2.91085 19.2032 3.04785C16.274 3.84185 4.63012 7.62584 3.67192 8.04984C2.62762 8.51184 2.02502 9.32584 2.01572 10.3938C2.00332 11.8218 3.15432 12.9428 4.51572 12.8948C4.55952 12.8938 6.24402 12.9169 7.20322 12.9269C7.20322 12.9269 8.05942 17.2079 8.08012 17.2589C8.33002 17.8729 8.91622 18.0559 9.42192 17.8349L12.2657 16.5838C12.5876 16.9008 14.752 18.9919 14.9844 19.1789C15.677 19.7349 16.2755 19.9099 17.0157 19.9289C18.2074 19.9599 19.2484 19.2589 19.7969 18.1159C20.1412 17.3989 21.7459 7.35785 21.8907 6.36185C22.1206 4.78085 22.0686 4.15985 21.4219 3.51685C21.162 3.25885 20.8475 3.07384 20.4844 2.98584ZM20.0156 4.92484C20.0156 4.92484 20.0642 5.10184 19.9219 6.07984C19.4128 9.58184 18.2063 16.7468 17.9532 17.3338C17.7803 17.7358 17.4338 17.9388 17.0469 17.9278C16.7064 17.9188 16.5369 17.8589 16.2344 17.6159C16.0788 17.4909 15.3787 16.8259 14.3907 15.8649C14.3783 15.8529 12.4201 13.9418 12.4201 13.9418C12.2292 13.7518 12.0498 13.6388 11.6739 13.6348C11.4553 13.6348 11.1668 13.8009 11.1668 13.8009L9.66302 15.0739L9.14072 12.5198L15.4219 9.83186C15.9293 9.61386 16.1714 9.02584 15.9532 8.51884C15.7351 8.01084 15.1481 7.76885 14.6407 7.98685L7.82822 10.9259C7.44032 10.9239 4.54982 10.8908 4.45322 10.8948C4.23072 10.9018 4.01322 10.6838 4.01572 10.3938C4.01772 10.1618 4.12002 10.0239 4.48442 9.86286C5.32902 9.48886 16.8323 5.75783 19.6715 4.98883C19.9393 4.91583 20.0156 4.92484 20.0156 4.92484Z" fill="#2A343D"/>
</svg>
