<svg width="24" height="24" viewBox="0 0 24 24" fill="none" xmlns="http://www.w3.org/2000/svg">
<path d="M5 3.90625C3.3431 3.90625 2 5.24935 2 6.90625V16.6562C2 18.4511 3.4551 19.9062 5.25 19.9062H18.75C20.5449 19.9062 22 18.4511 22 16.6562V8.90625C22 8.35395 21.5523 7.90625 21 7.90625H20V4.90625C20 4.35395 19.5523 3.90625 19 3.90625H5ZM5 5.90625H18V7.90625H5C4.4477 7.90625 4 7.45855 4 6.90625C4 6.35395 4.4477 5.90625 5 5.90625ZM5 9.90625H20V16.6562C20 17.3467 19.4403 17.9062 18.75 17.9062H5.25C4.5596 17.9062 4 17.3467 4 16.6562L4.0058 9.73035C4.0058 9.73035 4.3638 9.90935 5 9.90625ZM17 12.9062C16.4477 12.9062 16 13.354 16 13.9062C16 14.4585 16.4477 14.9062 17 14.9062C17.5523 14.9062 18 14.4585 18 13.9062C18 13.354 17.5523 12.9062 17 12.9062Z" fill="#2A343D"/>
</svg>
